<?xml version="1.0" standalone="no"?>
<!DOCTYPE svg PUBLIC "-//W3C//DTD SVG 20010904//EN"
 "http://www.w3.org/TR/2001/REC-SVG-20010904/DTD/svg10.dtd">
<svg version="1.0" xmlns="http://www.w3.org/2000/svg"
 width="500.000000pt" height="500.000000pt" viewBox="0 0 500.000000 500.000000"
 preserveAspectRatio="xMidYMid meet">

<g transform="translate(0.000000,500.000000) scale(0.100000,-0.100000)"
fill="#000000" stroke="none">
<path d="M3337 4740 c-118 -60 -225 -152 -287 -249 -35 -54 -60 -66 -60 -28
-1 19 -2 20 -10 5 -9 -15 -23 -16 -115 -11 -63 4 -134 1 -182 -6 -89 -14 -233
-49 -248 -60 -5 -4 -37 -18 -70 -31 -59 -22 -165 -78 -165 -85 0 -3 7 -2 15 1
34 13 11 -14 -46 -56 -215 -156 -373 -345 -489 -585 -54 -113 -117 -281 -108
-290 2 -3 15 28 27 68 35 110 130 300 209 420 190 285 519 511 827 566 69 12
280 22 301 14 38 -14 4 -23 -95 -23 -60 0 -146 -7 -192 -15 -95 -18 -201 -53
-194 -65 3 -5 14 -6 24 -3 11 3 43 0 72 -6 31 -7 55 -8 58 -3 3 5 44 10 91 10
l85 0 -70 -8 c-38 -5 -90 -13 -114 -18 -25 -6 -50 -8 -55 -5 -6 4 -8 2 -3 -2
4 -5 -30 -23 -75 -40 -192 -75 -390 -227 -545 -418 -32 -39 -61 -74 -65 -77
-11 -8 -85 -162 -116 -241 -41 -103 -84 -247 -79 -262 4 -9 6 -8 6 1 1 8 8 39
17 70 l17 56 22 -26 22 -26 -19 -86 c-12 -51 -18 -99 -14 -119 l6 -34 178 -46
c97 -25 217 -56 266 -69 104 -27 91 -37 -44 -32 l-85 2 123 -43 c68 -24 126
-46 130 -51 4 -4 -1 -4 -11 -1 -15 6 -195 58 -574 168 -35 10 -67 20 -73 24
-6 4 -10 -9 -10 -32 0 -38 -1 -39 -34 -35 -29 3 -34 1 -40 -23 -4 -14 -4 -41
0 -60 6 -36 22 -40 54 -12 19 16 20 16 20 -21 0 -49 26 -222 45 -297 73 -287
175 -477 354 -655 118 -117 217 -190 341 -249 161 -76 253 -96 435 -96 181 1
277 22 427 92 54 25 99 44 101 42 47 -68 58 -92 45 -101 -26 -19 -154 -77
-213 -96 -225 -76 -483 -76 -710 0 -171 56 -393 202 -520 340 -162 177 -290
420 -356 673 -15 61 -28 101 -29 89 -1 -53 73 -285 125 -389 180 -364 455
-620 785 -731 130 -44 125 -42 118 -49 -10 -10 -128 13 -172 33 -22 11 -77 34
-121 53 -67 28 -197 104 -242 143 -84 71 -158 142 -203 193 -66 75 -172 232
-164 244 3 5 0 9 -7 9 -7 0 -10 3 -7 6 3 3 -9 31 -28 62 -45 74 -87 185 -120
316 -17 70 -30 103 -35 94 -7 -10 -9 -9 -9 4 0 9 5 18 11 20 5 2 7 11 3 22 -5
14 -9 15 -15 4 -6 -9 -9 -5 -9 14 0 14 5 28 11 30 5 2 7 11 4 20 -6 16 -9 16
-22 2 -14 -14 -13 -28 7 -137 12 -67 27 -132 31 -145 6 -15 5 -21 -1 -17 -6 4
-18 1 -27 -7 -15 -12 -15 -11 -5 9 7 12 12 28 11 35 0 7 -4 5 -8 -5 -6 -16
-19 -19 -93 -19 -48 0 -91 3 -97 6 -5 3 -11 0 -14 -6 -3 -10 -9 -10 -27 0 -22
13 -22 13 -16 -10 4 -12 8 -29 8 -36 1 -7 25 -61 54 -120 29 -59 44 -96 33
-82 -31 40 -136 258 -163 340 -14 41 -28 95 -32 120 -7 49 -23 88 -24 59 0
-28 49 -211 75 -277 31 -77 31 -81 1 -49 -43 46 -126 296 -126 380 0 15 -4 27
-10 27 -15 0 -12 -24 14 -140 25 -108 37 -146 79 -262 14 -38 23 -68 21 -68
-8 0 -63 120 -92 200 -57 162 -67 233 -67 472 0 223 -11 250 -21 53 -18 -331
101 -734 286 -973 136 -176 315 -315 514 -396 60 -25 226 -66 266 -66 19 0 42
-5 50 -10 47 -30 -165 4 -280 46 -325 116 -577 354 -742 701 -27 56 -54 103
-58 103 -5 0 -7 -8 -3 -17 4 -13 3 -15 -5 -8 -6 6 -24 51 -41 100 -16 50 -30
84 -30 76 -2 -32 73 -231 125 -333 133 -260 339 -466 589 -591 140 -69 334
-117 478 -117 36 0 70 -11 140 -44 340 -164 734 -165 1059 -3 l103 52 -3 39
c-3 32 -1 38 13 32 9 -3 18 -6 21 -6 2 0 19 -33 37 -72 57 -121 127 -168 249
-168 67 0 120 19 162 58 32 31 76 117 75 147 l-1 20 -5 -20 c-10 -41 -36 -85
-46 -78 -5 3 -7 2 -4 -4 7 -11 -33 -33 -58 -33 -11 0 -9 6 6 21 47 47 65 159
35 217 -31 60 -111 113 -135 89 -17 -17 -14 -25 19 -42 17 -9 30 -24 30 -34 0
-10 6 -23 13 -29 16 -14 15 -75 -2 -122 -13 -35 -58 -65 -106 -71 -29 -4 -65
10 -65 26 0 8 -7 18 -16 23 -13 7 -17 25 -17 82 0 63 3 76 22 91 12 10 23 22
24 26 1 4 5 7 10 5 4 -1 7 2 7 8 0 5 12 10 28 10 19 0 23 3 13 9 -11 7 -11 9
0 14 8 4 1 4 -16 0 -39 -7 -73 -39 -96 -88 -23 -50 -24 -102 -3 -156 14 -34
15 -42 3 -49 -19 -12 -23 -8 -68 76 -23 41 -63 109 -91 150 -27 41 -50 77 -50
80 0 3 -13 24 -29 47 -15 23 -51 78 -79 123 -106 169 -119 204 -79 210 12 2
17 -2 13 -11 -3 -8 0 -17 6 -21 7 -4 8 -3 4 4 -4 7 -3 12 3 12 5 0 70 -90 143
-200 147 -221 156 -229 199 -163 13 20 40 44 59 55 19 10 28 18 20 18 -26 0
-122 -61 -117 -74 3 -6 -3 -13 -13 -13 -13 -1 -42 36 -103 130 -96 151 -137
220 -137 232 0 4 18 5 40 2 24 -3 40 -1 40 5 0 6 14 8 35 4 19 -4 44 -2 55 4
13 7 20 7 20 0 0 -5 -5 -10 -12 -10 -6 0 -8 -3 -5 -7 4 -3 17 2 29 13 20 18
21 18 15 1 -4 -10 -3 -16 2 -13 11 7 41 -27 86 -97 20 -32 43 -61 51 -64 7 -3
12 -9 9 -13 -3 -4 2 -11 11 -14 9 -3 14 -13 11 -21 -4 -9 -1 -12 9 -8 18 7 19
-27 2 -46 -11 -11 -10 -13 2 -9 34 10 21 55 -46 167 -48 80 -65 118 -62 136 3
15 1 22 -5 18 -6 -4 -8 0 -4 11 4 11 3 15 -4 11 -6 -4 -8 -14 -4 -24 5 -14 4
-14 -8 -1 -17 18 -212 310 -281 423 -59 94 -86 117 -138 117 -78 0 -128 -57
-128 -143 0 -35 11 -60 54 -129 78 -124 132 -223 116 -213 -10 6 -12 4 -7 -11
6 -15 4 -15 -11 4 -13 17 -20 20 -29 11 -14 -14 -19 -9 -128 139 -42 56 -111
135 -153 175 -131 124 -145 140 -174 204 -21 45 -31 84 -35 139 -5 56 -8 72
-14 56 -8 -21 -29 -31 -29 -13 0 5 9 37 20 72 22 72 62 134 147 230 32 36 68
79 80 95 12 16 22 26 22 22 1 -4 -39 -58 -87 -120 -83 -105 -119 -158 -108
-158 2 0 13 15 24 33 10 17 49 68 86 112 113 135 222 323 272 472 24 72 26 88
22 202 -3 72 -1 117 4 108 12 -22 29 -163 22 -182 -4 -10 0 -15 10 -15 9 0 16
6 16 13 0 9 3 8 9 -2 6 -10 13 -10 29 -2 16 9 33 3 98 -35 44 -24 101 -51 127
-59 80 -24 198 -36 237 -25 59 17 58 11 -6 -25 -83 -47 -159 -117 -207 -190
-57 -88 -181 -341 -208 -422 -19 -59 -25 -69 -36 -58 -8 8 -30 12 -54 11 -37
-3 -42 0 -64 33 -12 20 -37 50 -55 66 -30 28 -29 26 11 -34 37 -56 44 -74 47
-127 4 -55 1 -69 -29 -125 -36 -66 -70 -94 -129 -104 -56 -10 -109 16 -147 73
-70 102 -63 232 18 313 22 22 32 36 21 30 -50 -26 -102 -119 -102 -179 0 -12
-7 -25 -17 -30 -35 -20 25 -196 65 -190 9 2 17 -3 17 -10 0 -26 38 -42 97 -42
97 0 154 37 205 132 13 24 23 37 23 31 0 -9 7 -10 26 -3 14 6 30 8 35 4 5 -3
9 3 10 13 0 11 3 13 6 5 7 -17 33 4 33 27 0 9 9 -3 20 -27 11 -24 50 -89 86
-145 37 -56 130 -201 207 -322 247 -390 302 -470 305 -451 3 12 10 16 23 13
14 -4 27 5 45 28 29 38 144 261 144 279 0 6 -23 -34 -50 -89 -27 -55 -59 -108
-70 -117 -12 -9 -21 -21 -22 -25 -4 -27 -12 -42 -24 -47 -20 -8 -17 4 11 47
42 60 113 210 140 293 37 115 30 113 -15 -4 -38 -101 -115 -256 -149 -300
l-17 -23 -32 51 c-24 38 -30 56 -22 65 33 40 141 297 154 365 3 19 -9 -5 -27
-55 -18 -49 -48 -121 -68 -160 l-36 -70 -53 2 c-34 2 -57 -2 -62 -10 -21 -33
-4 32 36 135 49 126 89 277 110 413 8 50 14 83 15 74 1 -15 5 -15 39 -3 20 7
47 13 60 14 20 0 22 -5 22 -47 0 -46 -15 -160 -26 -195 -3 -10 -1 -18 4 -18
11 0 39 156 48 266 l7 81 31 -2 c21 -1 35 -10 43 -26 11 -21 13 -11 13 71 0
52 -4 101 -9 109 -5 8 -26 14 -47 15 -35 1 -39 4 -45 34 -13 63 -22 46 -16
-31 5 -77 5 -79 -16 -74 -79 19 -97 19 -104 1 -6 -14 -9 -5 -14 31 -5 39 -2
56 12 77 26 36 25 102 -1 128 -11 11 -24 20 -30 20 -5 0 -10 6 -10 14 0 7 -11
51 -24 97 -22 76 -23 86 -9 101 9 10 20 15 24 12 5 -3 9 0 9 5 0 6 13 11 30
11 33 0 45 -18 75 -110 15 -48 35 -86 35 -68 0 23 -74 227 -104 286 l-36 71
40 28 c42 30 50 43 25 43 -26 0 -17 21 29 70 43 46 86 119 100 170 4 14 -6 0
-21 -30 l-29 -55 -114 0 c-63 0 -238 2 -389 5 l-273 5 -43 58 c-119 158 -125
360 -15 525 53 79 163 181 244 227 36 20 66 39 66 41 0 8 -16 2 -73 -26z
m-947 -385 c0 -6 -56 -35 -67 -35 -4 1 8 9 27 20 39 22 40 22 40 15z m615
-107 c1 -46 6 -100 10 -120 10 -54 -10 -48 -24 6 -12 50 -14 127 -5 175 10 50
17 28 19 -61z m-72 -61 c35 -71 65 -199 78 -337 l11 -115 -33 -85 -34 -85 -7
130 c-9 175 -25 311 -50 424 -15 73 -17 95 -7 101 8 6 4 10 -12 13 -23 4 -23
4 2 6 23 1 31 -7 52 -52z m-363 27 c6 17 7 17 20 0 13 -16 13 -17 0 -10 -9 4
-8 2 2 -7 44 -36 80 -207 104 -489 18 -218 26 -276 32 -240 2 12 10 22 18 22
8 0 14 4 14 10 0 9 47 60 56 60 10 0 32 -66 39 -117 7 -56 1 -80 -18 -65 -24
18 -45 20 -71 7 -24 -13 -44 -5 -32 13 2 4 1 14 -5 22 -6 10 -9 -3 -9 -42 0
-56 16 -89 22 -46 4 31 43 36 58 9 8 -16 7 -26 -6 -46 -19 -29 -32 -31 -50 -7
-13 16 -13 16 -14 -3 0 -11 4 -26 9 -34 7 -11 -4 -31 -40 -75 -28 -32 -59 -77
-71 -99 l-20 -40 -16 25 c-21 35 -95 82 -215 135 -131 58 -287 115 -287 104 0
-4 19 -14 42 -21 67 -19 182 -74 168 -78 -9 -3 -9 -7 1 -14 10 -7 5 -8 -16 -4
-21 5 -26 4 -15 -3 13 -9 12 -11 -1 -16 -19 -7 -27 -4 -229 85 -95 42 -180 73
-210 77 -34 4 -50 10 -50 20 0 8 4 12 9 8 5 -3 12 -1 15 4 7 11 95 -5 200 -36
11 -3 16 -1 12 5 -5 8 -32 16 -161 47 -11 3 -45 10 -75 17 -30 7 -56 12 -58
13 -1 1 3 15 8 32 11 30 11 30 60 20 l50 -10 -22 -18 c-14 -13 -16 -19 -7 -19
8 0 20 10 27 21 11 18 20 20 52 15 70 -11 342 -93 499 -150 228 -83 234 -79
239 177 3 123 1 168 -7 163 -7 -5 -11 -45 -11 -109 0 -56 -4 -97 -8 -92 -12
16 -36 11 -50 -10 -12 -19 -12 -18 -6 5 7 25 7 25 -15 6 -11 -11 -21 -15 -21
-11 0 5 -3 6 -6 2 -3 -3 15 -35 41 -71 53 -75 56 -107 4 -50 -19 22 -38 40
-43 41 -4 1 -14 10 -22 20 -11 13 -14 14 -12 3 2 -9 -4 -14 -14 -14 -9 1 -19
-5 -22 -13 -5 -11 0 -13 17 -8 16 5 18 4 8 -3 -8 -6 -11 -17 -8 -25 5 -14 1
-14 -41 -1 -26 9 -62 20 -79 25 -46 14 -41 22 8 14 48 -8 115 17 124 46 4 11
14 26 23 36 15 14 18 50 22 272 l5 256 29 -2 c16 -1 31 -4 33 -6 2 -3 10 -35
18 -73 l15 -69 -6 75 c-6 96 -31 241 -49 294 -18 49 -19 68 -3 41 11 -18 12
-18 18 -1z m289 -30 c41 -45 90 -409 61 -454 -8 -12 -10 -12 -10 -1 0 11 -3
11 -15 1 -13 -11 -14 -10 -10 2 4 10 -2 14 -22 13 l-28 0 -5 165 c-6 177 -16
216 -57 226 -27 7 -28 13 -9 39 8 11 20 16 29 12 9 -3 19 -2 22 3 6 10 32 7
44 -6z m-176 -41 c-7 -2 -19 -2 -25 0 -7 3 -2 5 12 5 14 0 19 -2 13 -5z m-320
-16 c-2 -4 9 -15 25 -24 l30 -17 -104 -62 c-121 -72 -168 -108 -281 -218 -46
-44 -83 -74 -83 -67 0 7 -4 9 -10 6 -5 -3 -10 -1 -10 5 0 6 -4 8 -10 5 -5 -3
-10 -2 -10 2 0 11 61 100 99 143 27 32 30 33 31 13 0 -28 28 -45 52 -32 24 13
23 34 -4 59 l-23 22 40 35 c46 41 165 120 197 132 28 10 68 9 61 -2z m-283
-218 c0 -5 -4 -9 -10 -9 -5 0 -10 7 -10 16 0 8 5 12 10 9 6 -3 10 -10 10 -16z
m1577 -185 c-3 -3 -12 -4 -19 -1 -8 3 -5 6 6 6 11 1 17 -2 13 -5z m-1814 -97
c-4 -7 0 -7 10 1 9 8 22 12 29 9 8 -4 7 -6 -4 -6 -12 -1 -15 -6 -11 -18 5 -12
3 -14 -7 -8 -9 5 -11 4 -6 -3 4 -7 0 -22 -8 -34 -13 -18 -16 -19 -16 -6 0 9
-4 19 -9 22 -4 3 -6 -6 -3 -19 3 -20 0 -25 -17 -25 -14 0 -19 5 -15 15 4 8 10
12 16 9 5 -3 8 0 6 7 -4 20 23 80 33 73 5 -3 6 -11 2 -17z m1759 -7 c-12 -11
-27 -20 -34 -20 -7 0 1 9 17 20 38 25 45 25 17 0z m77 -56 c2 -2 2 -6 0 -8 -4
-5 -270 -126 -275 -126 -2 0 -1 6 2 14 3 8 39 27 80 42 78 28 100 45 91 68 -4
10 2 16 21 18 29 4 74 0 81 -8z m71 -60 c0 -19 -18 -30 -239 -139 l-212 -105
36 68 37 67 125 55 c225 99 226 99 241 82 6 -9 12 -21 12 -28z m-1935 -4 c4
-6 -7 -10 -27 -9 -31 1 -32 1 -8 9 14 4 26 8 27 9 1 1 5 -3 8 -9z m1075 -54
c0 -3 -4 -8 -10 -11 -5 -3 -10 -1 -10 4 0 6 5 11 10 11 6 0 10 -2 10 -4z m864
-76 c14 -43 26 -86 26 -94 0 -17 -77 -27 -89 -11 -10 12 -45 145 -40 149 25
19 56 36 65 36 6 0 23 -36 38 -80z m-930 -3 c15 -11 16 -15 3 -25 -11 -10 -16
-7 -25 13 -13 28 -5 32 22 12z m986 -136 c0 -16 -60 -54 -61 -39 0 10 -2 10
-6 0 -2 -6 -9 -10 -14 -7 -5 4 -6 -2 -2 -11 4 -12 3 -15 -5 -10 -7 4 -12 2
-12 -4 0 -6 -5 -8 -12 -4 -6 4 -9 3 -6 -2 3 -5 -11 -20 -33 -33 -53 -34 -42
-38 14 -6 25 14 51 25 58 25 7 0 31 16 55 35 23 19 45 35 49 35 3 0 5 -17 3
-37 -2 -30 -10 -42 -38 -61 -19 -12 -43 -29 -52 -37 -10 -8 -50 -31 -88 -50
-61 -31 -84 -36 -161 -41 -50 -3 -109 -12 -131 -20 -46 -16 -87 -19 -53 -4 11
5 57 24 103 41 45 18 81 34 79 36 -3 2 -17 -1 -33 -7 -16 -6 -55 -17 -87 -25
-48 -11 -59 -11 -71 0 -7 8 -17 11 -21 7 -5 -4 0 5 11 19 15 22 53 37 204 85
102 33 188 58 193 56 4 -1 6 1 6 6 -1 4 -1 19 0 35 1 26 3 27 56 27 30 0 55
-4 55 -9z m-1439 -74 c-10 -9 -11 -8 -5 6 3 10 9 15 12 12 3 -3 0 -11 -7 -18z
m48 -54 c51 -16 63 -29 37 -39 -25 -9 -39 -60 -28 -94 6 -16 9 -30 6 -30 -25
0 -144 34 -144 41 0 5 6 9 13 9 8 0 7 3 -3 9 -8 6 -18 7 -24 4 -5 -4 -6 3 -2
18 4 13 10 41 13 62 5 35 7 37 43 37 21 0 61 -7 89 -17z m853 -43 c4 0 8 -5 8
-11 0 -9 -69 -44 -75 -37 -1 2 5 27 13 57 l16 55 15 -32 c8 -18 18 -32 23 -32z
m-755 44 c-3 -3 -12 -4 -19 -1 -8 3 -5 6 6 6 11 1 17 -2 13 -5z m1283 -79 c0
-40 -2 -45 -17 -37 -10 5 -28 8 -40 6 -13 -2 -23 -1 -23 4 0 6 70 70 78 72 1
0 2 -20 2 -45z m-1211 -19 c-1 -17 -2 -16 -9 6 -4 14 -11 32 -15 40 -3 7 1 4
9 -6 9 -11 16 -29 15 -40z m-91 32 c7 -7 12 -20 12 -30 0 -14 -8 -18 -34 -18
-37 0 -49 15 -34 43 10 20 39 22 56 5z m43 2 c23 -13 27 -78 4 -86 -29 -12
-39 2 -16 23 17 16 19 22 8 26 -8 3 -17 15 -20 26 -6 24 -3 25 24 11z m-286
-75 l50 -15 -45 7 c-48 6 -96 21 -70 22 8 0 38 -6 65 -14z m82 -21 c-3 -3 -12
-4 -19 -1 -8 3 -5 6 6 6 11 1 17 -2 13 -5z m-242 -74 c186 -51 315 -92 315
-101 0 -3 -35 -9 -77 -11 l-78 -6 -170 72 c-93 40 -171 78 -173 85 -1 8 4 11
15 8 10 -3 86 -24 168 -47z m1196 21 c0 8 4 5 9 -6 5 -11 9 -15 9 -8 1 6 10
11 20 10 26 -2 18 -13 -23 -32 -18 -9 -38 -26 -44 -38 -10 -21 -11 -20 -26 15
-19 43 -20 51 -6 43 6 -3 10 -1 10 5 0 6 5 8 10 5 6 -3 10 -1 10 6 0 8 4 8 15
-1 12 -10 15 -10 16 1z m56 -59 c-15 -15 -33 -45 -40 -67 -14 -39 -14 -39 -26
-17 -21 40 -10 65 39 89 58 28 59 28 27 -5z m-1005 -4 c-7 -7 -16 -7 -28 0
-14 8 -13 10 10 10 18 0 24 -4 18 -10z m108 0 c0 7 4 11 8 8 5 -3 33 -6 64 -7
l56 -2 12 -41 c7 -23 21 -56 32 -73 11 -18 15 -33 10 -33 -6 0 -47 -66 -92
-147 -150 -270 -398 -616 -443 -619 -6 0 -18 4 -24 9 -12 9 -19 -10 -14 -37 1
-5 -5 -4 -13 3 -14 12 -10 20 28 65 78 93 153 200 214 306 86 152 193 377 199
420 7 49 -17 93 -62 114 -19 9 -35 21 -35 27 0 6 4 8 8 5 4 -2 14 -1 22 4 9 6
17 5 22 -3 6 -9 8 -9 8 1z m1330 0 c0 6 5 12 12 12 8 0 9 -27 5 -97 -8 -125
-54 -308 -109 -424 l-41 -90 -28 43 -28 43 34 90 c31 85 76 266 90 366 4 34
11 49 28 56 15 7 24 7 29 -1 6 -8 8 -7 8 2z m-2096 -49 c2 -2 16 -58 31 -124
49 -219 132 -426 214 -534 40 -54 48 -84 32 -126 -7 -16 -15 -8 -59 53 -28 40
-77 125 -108 188 -57 112 -58 115 -42 142 20 33 10 56 -24 57 -21 0 -25 10
-49 105 -15 58 -29 138 -33 178 -7 69 -6 72 13 69 11 -2 22 -5 25 -8z m796
-88 c0 -11 -13 -28 -30 -38 -33 -19 -39 -33 -14 -33 22 0 14 -22 -62 -170 -85
-164 -132 -232 -166 -241 -17 -4 -28 -3 -28 2 0 6 -5 7 -12 3 -14 -9 -18 -19
68 171 54 120 68 162 72 212 2 36 10 67 18 74 10 8 14 8 14 0 0 -6 9 -11 21
-11 11 0 17 4 14 10 -4 7 2 9 17 5 14 -3 34 2 53 15 37 24 35 24 35 1z m696
-30 c31 -29 64 -70 64 -79 0 -5 7 -17 16 -28 8 -10 12 -13 8 -5 -4 9 -3 12 4
7 6 -4 9 -12 6 -19 -2 -7 3 -21 12 -32 8 -11 12 -14 8 -6 -5 9 -3 12 5 7 6 -4
8 -12 5 -18 -4 -5 2 -22 13 -36 15 -21 105 -172 140 -234 2 -4 -2 -10 -8 -14
-7 -4 -9 -3 -6 3 4 6 -27 9 -79 9 -64 0 -88 3 -95 14 -8 11 -8 9 -3 -10 6 -24
6 -24 -13 -7 -11 9 -22 15 -25 12 -8 -9 -59 59 -143 190 -78 122 -89 159 -64
208 29 56 114 77 155 38z m-526 -66 c0 -21 -6 -35 -16 -39 -21 -8 -37 3 -30
21 3 8 1 11 -4 8 -15 -9 -12 8 5 32 21 31 45 19 45 -22z m53 -34 c-6 -9 -20
-18 -33 -19 -21 -4 -22 -3 -6 19 9 13 16 32 16 43 0 19 1 19 17 -3 12 -17 13
-28 6 -40z m51 -35 c-10 -48 -32 -85 -49 -82 -21 3 -20 7 7 76 18 46 25 56 36
48 8 -7 11 -22 6 -42z m-94 -3 l39 5 -16 -31 c-32 -63 -78 -127 -91 -127 -7 0
-11 4 -7 9 6 11 -15 61 -26 61 -4 0 -6 -11 -4 -26 l2 -25 -23 22 c-19 17 -21
25 -12 32 9 6 10 10 2 13 -8 3 -1 24 18 60 l30 55 25 -27 c21 -22 30 -26 63
-21z m220 -89 c0 -6 6 -17 14 -23 14 -12 15 -22 3 -51 -3 -8 -7 -26 -9 -39 -2
-18 -10 -25 -28 -26 -14 -1 -35 -5 -48 -9 l-23 -8 22 44 c12 23 31 56 41 71
11 16 18 31 15 33 -7 8 -41 -47 -127 -206 -106 -196 -137 -246 -204 -334 -69
-90 -101 -127 -90 -107 5 11 3 13 -12 8 -17 -6 -17 -5 -2 5 14 11 15 13 1 23
-12 9 -4 27 55 120 142 224 194 333 288 594 3 10 19 0 54 -34 28 -27 50 -54
50 -61z m35 8 c-3 -3 -6 -3 -7 -1 -2 2 -14 18 -28 34 l-25 30 32 -29 c18 -16
31 -32 28 -34z m-1175 -36 c0 -3 -4 -8 -10 -11 -5 -3 -10 -1 -10 4 0 6 5 11
10 11 6 0 10 -2 10 -4z m-255 -46 c3 -6 -1 -7 -9 -4 -18 7 -21 14 -7 14 6 0
13 -4 16 -10z m1110 -66 c17 4 24 3 20 -4 -8 -13 1 -13 26 0 47 26 -77 -229
-179 -367 -53 -70 -111 -133 -87 -94 6 11 4 13 -8 8 -10 -3 -17 -2 -17 4 0 6
-6 7 -12 3 -7 -5 -2 8 11 27 28 42 137 268 177 366 16 39 32 67 35 61 4 -6 18
-8 34 -4z m-413 -416 c37 -30 40 -36 35 -71 -3 -21 -8 -41 -11 -44 -6 -6 -56
25 -101 62 l-29 24 29 31 c16 16 30 30 32 30 3 0 22 -15 45 -32z m1097 -50
c20 -33 20 -38 6 -38 -9 0 -31 12 -50 27 -32 26 -33 27 -17 49 19 26 25 22 61
-38z m-860 -29 c-16 -10 -23 -4 -14 10 3 6 11 8 17 5 6 -4 5 -9 -3 -15z m796
-7 c-3 -3 -11 0 -18 7 -9 10 -8 11 6 5 10 -3 15 -9 12 -12z m25 -11 c0 -5 -10
-11 -22 -14 -22 -6 -22 -6 -4 8 23 17 26 18 26 6z m-204 -20 c-3 -5 1 -11 9
-15 8 -3 15 -13 15 -21 0 -9 5 -13 10 -10 6 3 10 0 10 -8 0 -15 -114 -67 -145
-67 -8 0 -15 -4 -15 -10 0 -13 -7 -14 105 20 54 17 102 30 107 30 5 0 18 -9
30 -19 l20 -20 -37 -15 c-145 -61 -343 -83 -495 -55 l-75 14 100 3 c141 4 148
22 8 22 -84 0 -133 6 -202 24 -51 13 -94 26 -97 29 -3 2 10 22 29 42 l34 37
65 -11 c107 -18 289 -13 408 13 58 13 109 24 113 25 5 0 6 -3 3 -8z m780 -29
c-4 -3 -14 2 -24 12 -16 18 -16 18 6 6 13 -6 21 -14 18 -18z m64 -66 c0 -5 -7
-3 -15 4 -8 7 -15 20 -15 28 0 13 3 12 15 -4 8 -10 15 -23 15 -28z m10 -63 c0
-21 -3 -24 -9 -14 -5 8 -7 20 -4 28 8 21 13 15 13 -14z m-490 -52 c0 -17 -198
-104 -265 -117 -11 -2 -42 -8 -70 -13 -27 -6 -66 -13 -85 -17 -77 -15 -16 8
81 32 65 16 146 45 214 78 103 50 125 56 125 37z m467 -33 c-3 -8 -6 -5 -6 6
-1 11 2 17 5 13 3 -3 4 -12 1 -19z m33 -72 c0 -2 -8 -10 -17 -17 -16 -13 -17
-12 -4 4 13 16 21 21 21 13z m-1273 -42 c2 -7 -6 -10 -21 -7 -14 3 -23 10 -20
15 8 12 36 6 41 -8z m73 2 c0 -2 -13 -6 -30 -8 -16 -3 -30 -1 -30 4 0 4 14 8
30 8 17 0 30 -2 30 -4z"/>
<path d="M2613 3740 c0 -30 2 -43 4 -27 2 15 2 39 0 55 -2 15 -4 2 -4 -28z"/>
<path d="M2030 3320 c0 -5 5 -10 11 -10 5 0 7 5 4 10 -3 6 -8 10 -11 10 -2 0
-4 -4 -4 -10z"/>
<path d="M2060 3310 c0 -5 5 -10 11 -10 5 0 7 5 4 10 -3 6 -8 10 -11 10 -2 0
-4 -4 -4 -10z"/>
<path d="M3520 3050 c-8 -5 -10 -10 -5 -10 6 0 17 5 25 10 8 5 11 10 5 10 -5
0 -17 -5 -25 -10z"/>
<path d="M2076 1928 c3 -5 10 -6 15 -3 13 9 11 12 -6 12 -8 0 -12 -4 -9 -9z"/>
<path d="M3695 2599 c-10 -30 18 -58 43 -43 9 6 17 22 17 35 0 34 -50 41 -60
8z m43 -10 c-2 -6 -8 -10 -13 -10 -5 0 -11 4 -13 10 -2 6 4 11 13 11 9 0 15
-5 13 -11z"/>
<path d="M2325 2650 c3 -5 11 -10 16 -10 6 0 7 5 4 10 -3 6 -11 10 -16 10 -6
0 -7 -4 -4 -10z"/>
<path d="M2783 1703 c-20 -8 -15 -51 7 -63 11 -6 25 -8 30 -5 14 9 12 49 -2
63 -13 13 -16 13 -35 5z m24 -39 c-9 -9 -28 6 -21 18 4 6 10 6 17 -1 6 -6 8
-13 4 -17z"/>
<path d="M2880 1620 c0 -5 4 -10 9 -10 6 0 13 5 16 10 3 6 -1 10 -9 10 -9 0
-16 -4 -16 -10z"/>
<path d="M2820 1610 c0 -5 6 -10 14 -10 8 0 18 5 21 10 3 6 -3 10 -14 10 -12
0 -21 -4 -21 -10z"/>
<path d="M3364 4716 c-65 -33 -184 -127 -184 -146 0 -7 172 -6 200 1 3 1 9 1
13 0 5 -1 6 3 2 9 -3 5 -2 10 3 10 6 0 15 12 20 28 6 15 19 51 30 80 19 49 19
52 2 52 -9 0 -48 -16 -86 -34z"/>
<path d="M3416 4573 c-6 -14 -5 -15 5 -6 7 7 10 15 7 18 -3 3 -9 -2 -12 -12z"/>
<path d="M3903 4512 c-12 -8 -146 -283 -140 -288 2 -2 21 32 42 76 22 44 43
80 48 80 4 0 6 4 3 8 -2 4 0 14 5 22 13 22 4 -46 -14 -96 -20 -56 -78 -168
-88 -172 -5 -2 -9 -9 -9 -16 0 -7 -6 -13 -14 -13 -11 0 -10 9 5 44 10 25 19
48 19 51 -1 8 -59 -99 -60 -109 0 -4 12 -9 26 -12 25 -4 29 2 81 112 165 349
154 321 130 321 -12 0 -27 -4 -34 -8z"/>
<path d="M2685 4493 c-86 -8 -211 -35 -274 -60 -60 -24 -79 -27 -226 -29 -217
-3 -361 -36 -539 -125 -239 -119 -461 -339 -589 -582 -44 -83 -38 -76 41 50
67 107 101 151 121 155 8 2 39 30 69 63 154 172 349 301 557 370 104 35 167
45 300 52 115 5 119 5 103 -13 -13 -13 -41 -19 -115 -25 -249 -20 -407 -73
-593 -199 -115 -78 -293 -286 -391 -457 -50 -88 -129 -278 -128 -308 0 -11 11
12 25 50 38 110 118 264 185 355 60 82 226 256 236 247 2 -3 -25 -36 -61 -73
-132 -138 -248 -320 -311 -489 -32 -83 -27 -98 5 -18 32 80 103 219 138 271
38 56 174 213 180 207 2 -2 -12 -23 -31 -47 -97 -120 -202 -310 -253 -461 -36
-104 -28 -106 10 -2 42 117 94 219 164 325 58 87 172 215 226 253 17 12 1 -10
-36 -48 -38 -37 -68 -73 -68 -78 0 -6 41 -8 105 -5 58 3 100 1 93 -3 -8 -5 -5
-8 9 -6 12 0 19 5 16 10 -3 5 4 6 17 2 20 -6 22 -4 16 11 -4 10 -4 15 0 11 4
-4 13 -2 19 3 7 6 -20 -51 -60 -125 -66 -125 -123 -252 -139 -315 l-7 -25 16
25 16 25 -6 -30 c-10 -46 -1 -29 40 75 20 52 57 132 81 178 25 46 42 88 38 94
-4 6 -3 8 3 5 5 -3 36 33 68 81 77 113 273 309 385 383 106 71 211 124 307
155 108 35 153 44 298 59 109 11 118 13 55 12 -41 0 -93 -2 -115 -4z m-1215
-517 c0 -2 -8 -10 -17 -17 -16 -13 -17 -12 -4 4 13 16 21 21 21 13z m4 -84 c3
-5 -1 -9 -9 -9 -8 0 -12 4 -9 9 3 4 7 8 9 8 2 0 6 -4 9 -8z m147 -205 c-10 -9
-11 -8 -5 6 3 10 9 15 12 12 3 -3 0 -11 -7 -18z m-45 -94 c-8 -15 -15 -25 -16
-21 0 12 23 58 27 54 3 -2 -2 -17 -11 -33z m-27 -72 c-6 -18 -13 -30 -15 -28
-2 2 1 18 7 36 6 18 13 30 15 28 2 -2 -1 -18 -7 -36z"/>
<path d="M2888 4483 c6 -2 18 -2 25 0 6 3 1 5 -13 5 -14 0 -19 -2 -12 -5z"/>
<path d="M3356 4445 c-9 -26 -7 -32 5 -12 6 10 9 21 6 23 -2 3 -7 -2 -11 -11z"/>
<path d="M3315 4349 c-4 -12 -3 -25 2 -29 4 -5 8 4 9 21 1 34 -2 37 -11 8z"/>
<path d="M4011 4334 c0 -11 3 -14 6 -6 3 7 2 16 -1 19 -3 4 -6 -2 -5 -13z"/>
<path d="M3350 4276 c0 -2 8 -10 18 -17 15 -13 16 -12 3 4 -13 16 -21 21 -21
13z"/>
<path d="M4022 4225 c0 -16 2 -22 5 -12 2 9 2 23 0 30 -3 6 -5 -1 -5 -18z"/>
<path d="M3390 4226 c0 -2 8 -10 18 -17 15 -13 16 -12 3 4 -13 16 -21 21 -21
13z"/>
<path d="M4011 4124 c0 -11 3 -14 6 -6 3 7 2 16 -1 19 -3 4 -6 -2 -5 -13z"/>
<path d="M3558 4103 c6 -2 18 -2 25 0 6 3 1 5 -13 5 -14 0 -19 -2 -12 -5z"/>
<path d="M3638 4093 c7 -3 16 -2 19 1 4 3 -2 6 -13 5 -11 0 -14 -3 -6 -6z"/>
<path d="M3899 3770 c-14 -8 -10 -21 28 -97 24 -48 43 -93 43 -100 0 -7 4 -13
9 -13 11 0 -21 83 -57 149 -24 43 -24 45 -6 58 20 15 7 17 -17 3z"/>
<path d="M1808 3723 c-10 -2 -15 -10 -11 -19 7 -20 20 -17 26 6 3 11 4 19 4
19 -1 -1 -10 -3 -19 -6z"/>
<path d="M1751 3699 c-12 -20 -11 -21 5 -15 10 4 21 1 26 -6 6 -9 8 -5 6 11
-4 32 -20 36 -37 10z"/>
<path d="M1002 3595 c-17 -37 -14 -45 4 -12 9 16 14 31 11 33 -2 2 -9 -7 -15
-21z"/>
<path d="M3136 3588 c-24 -9 -40 -35 -107 -175 -74 -155 -90 -205 -71 -217 5
-3 7 8 4 23 -3 20 17 70 72 179 78 156 104 186 152 177 10 -2 22 -4 27 -4 4
-1 7 -6 7 -11 0 -6 11 -23 24 -37 14 -15 22 -31 19 -36 -3 -6 -1 -7 5 -3 8 5
12 -1 12 -16 0 -19 -2 -20 -11 -8 -8 12 -9 11 -5 -5 4 -13 -22 -72 -73 -170
-71 -137 -80 -150 -104 -150 -15 1 -27 -2 -27 -6 0 -11 31 -20 49 -14 24 7
181 324 181 364 0 44 -25 88 -60 106 -33 17 -53 18 -94 3z"/>
<path d="M3992 3525 c0 -5 6 -26 13 -45 7 -19 14 -28 14 -20 0 8 -6 29 -14 45
-7 17 -13 26 -13 20z"/>
<path d="M4021 3430 c0 -8 4 -24 9 -35 5 -13 9 -14 9 -5 0 8 -4 24 -9 35 -5
13 -9 14 -9 5z"/>
<path d="M1060 3379 c0 -5 5 -7 10 -4 6 3 10 8 10 11 0 2 -4 4 -10 4 -5 0 -10
-5 -10 -11z"/>
<path d="M4041 3354 c0 -11 3 -14 6 -6 3 7 2 16 -1 19 -3 4 -6 -2 -5 -13z"/>
<path d="M911 3334 c0 -11 3 -14 6 -6 3 7 2 16 -1 19 -3 4 -6 -2 -5 -13z"/>
<path d="M1101 3314 c0 -11 3 -14 6 -6 3 7 2 16 -1 19 -3 4 -6 -2 -5 -13z"/>
<path d="M1561 3314 c0 -11 3 -14 6 -6 3 7 2 16 -1 19 -3 4 -6 -2 -5 -13z"/>
<path d="M4052 3310 c0 -14 2 -19 5 -12 2 6 2 18 0 25 -3 6 -5 1 -5 -13z"/>
<path d="M1001 3304 c0 -11 3 -14 6 -6 3 7 2 16 -1 19 -3 4 -6 -2 -5 -13z"/>
<path d="M1460 3310 c0 -6 4 -9 9 -6 5 4 12 1 14 -4 3 -6 4 -5 3 2 -3 15 -26
23 -26 8z"/>
<path d="M901 3294 c0 -11 3 -14 6 -6 3 7 2 16 -1 19 -3 4 -6 -2 -5 -13z"/>
<path d="M3920 3296 c0 -8 5 -18 10 -21 6 -3 10 1 10 9 0 8 -4 18 -10 21 -5 3
-10 -1 -10 -9z"/>
<path d="M1091 3274 c0 -11 3 -14 6 -6 3 7 2 16 -1 19 -3 4 -6 -2 -5 -13z"/>
<path d="M1552 3270 c0 -14 2 -19 5 -12 2 6 2 18 0 25 -3 6 -5 1 -5 -13z"/>
<path d="M4062 3260 c0 -14 2 -19 5 -12 2 6 2 18 0 25 -3 6 -5 1 -5 -13z"/>
<path d="M891 3244 c0 -11 3 -14 6 -6 3 7 2 16 -1 19 -3 4 -6 -2 -5 -13z"/>
<path d="M3935 3240 c3 -5 8 -10 11 -10 2 0 4 5 4 10 0 6 -5 10 -11 10 -5 0
-7 -4 -4 -10z"/>
<path d="M1026 3223 c-6 -14 -5 -15 5 -6 7 7 10 15 7 18 -3 3 -9 -2 -12 -12z"/>
<path d="M1542 3220 c0 -14 2 -19 5 -12 2 6 2 18 0 25 -3 6 -5 1 -5 -13z"/>
<path d="M982 3205 c0 -16 2 -22 5 -12 2 9 2 23 0 30 -3 6 -5 -1 -5 -18z"/>
<path d="M4072 3205 c0 -16 2 -22 5 -12 2 9 2 23 0 30 -3 6 -5 -1 -5 -18z"/>
<path d="M4112 3210 c0 -14 2 -19 5 -12 2 6 2 18 0 25 -3 6 -5 1 -5 -13z"/>
<path d="M1652 3200 c0 -14 2 -19 5 -12 2 6 2 18 0 25 -3 6 -5 1 -5 -13z"/>
<path d="M882 3185 c0 -16 2 -22 5 -12 2 9 2 23 0 30 -3 6 -5 -1 -5 -18z"/>
<path d="M3940 3186 c0 -8 5 -18 10 -21 6 -3 10 1 10 9 0 8 -4 18 -10 21 -5 3
-10 -1 -10 -9z"/>
<path d="M1015 3178 c-23 -69 -26 -371 -3 -408 6 -9 7 15 3 66 -7 90 0 134 21
134 9 0 14 -12 14 -37 1 -27 3 -33 9 -23 11 19 18 196 9 206 -5 4 -8 -10 -8
-32 0 -53 -9 -81 -27 -89 -14 -5 -15 7 -10 95 5 93 3 118 -8 88z"/>
<path d="M1072 3170 c0 -14 2 -19 5 -12 2 6 2 18 0 25 -3 6 -5 1 -5 -13z"/>
<path d="M1532 3165 c0 -16 2 -22 5 -12 2 9 2 23 0 30 -3 6 -5 -1 -5 -18z"/>
<path d="M1437 3164 c-4 -4 -7 -14 -7 -23 0 -11 3 -12 11 -4 6 6 10 16 7 23
-2 6 -7 8 -11 4z"/>
<path d="M1642 3145 c0 -16 2 -22 5 -12 2 9 2 23 0 30 -3 6 -5 -1 -5 -18z"/>
<path d="M4083 3125 c0 -22 2 -30 4 -17 2 12 2 30 0 40 -3 9 -5 -1 -4 -23z"/>
<path d="M4122 3130 c0 -19 2 -27 5 -17 2 9 2 25 0 35 -3 9 -5 1 -5 -18z"/>
<path d="M1457 3143 c-4 -3 -7 -13 -7 -22 1 -13 3 -13 11 2 11 19 8 33 -4 20z"/>
<path d="M866 3012 c-4 -68 -6 -126 -2 -129 3 -4 6 3 6 15 0 20 10 27 33 23 4
0 7 20 7 45 0 36 -3 45 -15 41 -11 -5 -15 7 -17 61 -3 57 -4 49 -12 -56z"/>
<path d="M1522 3090 c0 -19 2 -27 5 -17 2 9 2 25 0 35 -3 9 -5 1 -5 -18z"/>
<path d="M2827 3106 c-68 -25 -89 -55 -106 -153 -10 -54 -9 -68 8 -113 22 -57
40 -78 84 -98 70 -31 143 0 184 78 19 37 23 57 21 116 -3 60 -8 78 -33 114
-41 59 -95 78 -158 56z m147 -89 c37 -37 45 -86 20 -127 -14 -23 -14 -23 -9
-2 4 12 2 22 -4 22 -5 0 -12 14 -15 30 -3 17 -9 44 -12 60 -6 32 0 37 20 17z
m5 -193 c-7 -8 -24 -23 -39 -34 l-26 -19 25 53 c24 48 27 50 39 34 11 -15 11
-22 1 -34z"/>
<path d="M1631 3072 c1 -28 3 -31 6 -12 3 14 9 28 15 31 5 4 3 9 -6 12 -13 5
-16 -1 -15 -31z"/>
<path d="M1427 3090 c-3 -8 -7 -26 -9 -40 -4 -29 -5 -29 -187 -21 l-131 6 0
-50 0 -50 57 2 c32 2 102 4 156 5 l97 3 1 -40 c1 -22 5 -51 9 -65 6 -20 8 -16
9 23 1 27 5 46 10 43 10 -7 22 157 12 164 -5 3 -10 12 -13 20 -5 13 -6 13 -11
0z"/>
<path d="M4091 2954 c-1 -72 -3 -160 -6 -195 -2 -37 2 -19 10 41 21 150 28
168 35 100 5 -44 7 -35 7 45 0 56 -2 85 -6 65 -7 -41 -18 -30 -30 32 -7 33 -9
12 -10 -88z"/>
<path d="M1510 2983 c0 -27 -3 -59 -7 -73 l-7 -25 -7 25 c-5 18 -7 11 -7 -25
0 -38 2 -44 8 -25 l7 25 6 -25 c4 -14 8 -43 10 -65 2 -22 4 22 5 98 1 75 0
137 -3 137 -3 0 -5 -21 -5 -47z"/>
<path d="M2631 2984 c0 -11 3 -14 6 -6 3 7 2 16 -1 19 -3 4 -6 -2 -5 -13z"/>
<path d="M3176 2853 c-6 -14 -5 -15 5 -6 7 7 10 15 7 18 -3 3 -9 -2 -12 -12z"/>
<path d="M873 2800 c0 -30 2 -43 4 -27 2 15 2 39 0 55 -2 15 -4 2 -4 -28z"/>
<path d="M1061 2811 c-1 -28 3 -41 8 -35 6 5 6 24 1 44 l-8 35 -1 -44z"/>
<path d="M1440 2798 c0 -14 -5 -28 -11 -30 -9 -3 -9 -16 -3 -43 l8 -40 4 33
c2 18 8 30 13 27 12 -8 11 46 -1 65 -8 12 -10 9 -10 -12z"/>
<path d="M4123 2760 c0 -25 2 -35 4 -22 2 12 2 32 0 45 -2 12 -4 2 -4 -23z"/>
<path d="M1523 2710 c0 -25 2 -35 4 -22 2 12 2 32 0 45 -2 12 -4 2 -4 -23z"/>
<path d="M1070 2720 c0 -11 4 -20 9 -20 5 0 7 9 4 20 -3 11 -7 20 -9 20 -2 0
-4 -9 -4 -20z"/>
<path d="M882 2705 c0 -16 2 -22 5 -12 2 9 2 23 0 30 -3 6 -5 -1 -5 -18z"/>
<path d="M4072 2665 c0 -16 2 -22 5 -12 2 9 2 23 0 30 -3 6 -5 -1 -5 -18z"/>
<path d="M4112 2665 c0 -16 2 -22 5 -12 2 9 2 23 0 30 -3 6 -5 -1 -5 -18z"/>
<path d="M892 2650 c0 -14 2 -19 5 -12 2 6 2 18 0 25 -3 6 -5 1 -5 -13z"/>
<path d="M1532 2635 c0 -16 2 -22 5 -12 2 9 2 23 0 30 -3 6 -5 -1 -5 -18z"/>
<path d="M4056 2589 c-4 -23 -5 -44 -2 -46 2 -2 7 14 11 37 4 23 5 43 2 46 -2
3 -7 -14 -11 -37z"/>
<path d="M902 2600 c0 -14 2 -19 5 -12 2 6 2 18 0 25 -3 6 -5 1 -5 -13z"/>
<path d="M4102 2600 c0 -14 2 -19 5 -12 2 6 2 18 0 25 -3 6 -5 1 -5 -13z"/>
<path d="M4092 2550 c0 -14 2 -19 5 -12 2 6 2 18 0 25 -3 6 -5 1 -5 -13z"/>
<path d="M3921 2534 c0 -11 3 -14 6 -6 3 7 2 16 -1 19 -3 4 -6 -2 -5 -13z"/>
<path d="M4036 2499 c-8 -42 0 -50 9 -9 4 17 5 34 2 36 -2 3 -7 -10 -11 -27z"/>
<path d="M4081 2504 c0 -11 3 -14 6 -6 3 7 2 16 -1 19 -3 4 -6 -2 -5 -13z"/>
<path d="M4071 2464 c0 -11 3 -14 6 -6 3 7 2 16 -1 19 -3 4 -6 -2 -5 -13z"/>
<path d="M1146 2367 c3 -10 9 -15 12 -12 3 3 0 11 -7 18 -10 9 -11 8 -5 -6z"/>
<path d="M3590 2184 c0 -5 7 -18 15 -28 12 -16 15 -17 15 -4 0 8 -7 21 -15 28
-8 7 -15 9 -15 4z"/>
<path d="M3580 2149 c0 -5 5 -7 10 -4 6 3 10 8 10 11 0 2 -4 4 -10 4 -5 0 -10
-5 -10 -11z"/>
<path d="M3799 2138 c-5 -18 -6 -38 -1 -34 7 8 12 36 6 36 -2 0 -4 -1 -5 -2z"/>
<path d="M3821 2114 c0 -11 3 -14 6 -6 3 7 2 16 -1 19 -3 4 -6 -2 -5 -13z"/>
<path d="M3810 1900 c6 -11 13 -20 16 -20 2 0 0 9 -6 20 -6 11 -13 20 -16 20
-2 0 0 -9 6 -20z"/>
<path d="M3936 1697 c3 -10 9 -15 12 -12 3 3 0 11 -7 18 -10 9 -11 8 -5 -6z"/>
<path d="M3951 1644 c0 -11 3 -14 6 -6 3 7 2 16 -1 19 -3 4 -6 -2 -5 -13z"/>
<path d="M2451 1516 c9 -9 128 -45 183 -55 120 -22 340 -9 420 24 25 11 7 12
-119 9 -82 -1 -154 0 -159 4 -21 12 -211 21 -222 10 -2 -3 -24 -2 -47 3 -49 9
-62 11 -56 5z"/>
<path d="M2562 998 c-27 -27 -13 -36 51 -35 56 2 62 4 65 25 4 23 -13 31 -21
10 -4 -10 -7 -10 -18 0 -17 15 -61 16 -77 0z"/>
<path d="M648 973 c-2 -10 -4 -62 -4 -116 1 -104 8 -120 51 -115 16 2 21 12
23 46 3 40 14 53 27 32 9 -14 48 -13 63 2 9 9 12 7 12 -10 0 -12 5 -22 10 -22
6 0 10 7 10 16 0 10 7 14 18 12 9 -2 16 -10 14 -17 -1 -7 2 -10 8 -6 6 3 8 10
5 15 -3 4 1 10 8 13 8 3 12 30 12 83 0 68 -2 79 -18 82 -36 7 -62 -8 -85 -48
-19 -33 -26 -39 -37 -30 -11 9 -16 7 -24 -9 -12 -22 -38 -19 -38 5 0 10 7 12
21 8 19 -6 19 -5 7 10 -8 9 -11 19 -7 23 3 3 6 1 6 -5 0 -7 5 -12 11 -12 5 0
2 13 -8 30 -13 23 -24 30 -49 30 -22 0 -33 -5 -36 -17z m252 -98 c0 -1 -7 -8
-15 -15 -13 -10 -15 -9 -15 8 0 15 5 20 15 16 8 -4 15 -7 15 -9z"/>
<path d="M1675 980 c-3 -6 -3 -19 0 -30 4 -14 2 -20 -9 -20 -18 0 -35 -29 -29
-47 3 -7 11 -13 18 -13 15 0 25 -22 25 -54 0 -12 7 -31 16 -42 14 -18 15 -18
4 6 -10 23 -10 24 4 6 8 -10 17 -23 19 -29 1 -5 21 -10 42 -11 36 -1 40 2 43
24 2 20 -3 28 -28 37 -25 9 -31 17 -28 35 2 17 11 24 31 26 21 3 27 9 27 28 0
19 -6 26 -30 31 -25 4 -30 10 -30 34 0 26 -3 29 -34 29 -19 0 -38 -5 -41 -10z
m41 -136 c1 -9 0 -13 -4 -10 -3 4 -7 14 -8 22 -1 9 0 13 4 10 3 -4 7 -14 8
-22z"/>
<path d="M3284 977 c-2 -7 -3 -62 -2 -122 l3 -109 28 1 c15 1 31 1 37 2 5 1
12 17 16 36 3 19 10 35 15 35 5 0 9 7 9 16 0 8 5 12 10 9 8 -5 8 -11 0 -20
-14 -16 10 -69 35 -79 25 -9 65 -7 65 3 0 22 -13 39 -28 36 -9 -1 -11 0 -4 2
16 6 15 14 -5 43 -9 14 -13 22 -8 18 4 -4 14 0 23 8 12 12 12 20 3 41 -10 22
-9 25 4 20 22 -9 18 8 -9 39 -20 25 -25 26 -38 13 -8 -8 -13 -19 -11 -26 2 -6
-1 -15 -8 -19 -8 -5 -11 -2 -7 7 3 8 -1 24 -9 34 -16 23 -57 30 -49 9 3 -7 1
-16 -4 -19 -6 -4 -10 3 -10 14 0 16 -6 21 -25 21 -14 0 -28 -6 -31 -13z m132
-69 c10 -12 14 -18 8 -15 -7 4 -14 -2 -17 -15 -5 -18 -8 -19 -21 -8 -20 15
-21 60 -3 60 8 0 22 -10 33 -22z"/>
<path d="M3880 954 c0 -36 0 -36 -35 -30 -50 10 -85 -26 -85 -87 0 -71 46
-109 104 -88 12 5 29 5 37 0 9 -4 25 -5 37 -2 21 5 22 11 22 124 l0 119 -40 0
c-39 0 -40 -1 -40 -36z m0 -126 c0 -23 -4 -29 -17 -26 -19 3 -28 30 -19 53 9
25 36 5 36 -27z"/>
<path d="M995 921 c-12 -5 -27 -16 -34 -25 -11 -13 -11 -17 3 -22 9 -3 32 -3
51 0 22 4 35 3 35 -4 0 -5 -5 -10 -11 -10 -6 0 -17 -7 -25 -15 -19 -18 -38
-20 -28 -2 5 7 -2 5 -16 -4 -36 -24 -34 -69 4 -87 21 -11 34 -12 52 -3 17 7
32 7 51 0 45 -17 53 -6 53 69 0 55 -4 72 -19 86 -23 20 -87 30 -116 17z m53
-113 c-6 -18 -28 -21 -28 -4 0 9 7 16 16 16 9 0 14 -5 12 -12z"/>
<path d="M1177 923 c-4 -3 -7 -44 -7 -89 0 -89 4 -95 57 -86 19 4 22 11 25 60
3 60 13 71 43 46 11 -8 14 -13 8 -9 -18 9 -17 -65 0 -89 10 -14 18 -15 40 -7
23 9 27 16 27 51 0 30 -3 39 -12 34 -10 -6 -10 -4 0 8 20 25 5 65 -30 77 -17
6 -34 8 -39 5 -15 -9 -80 -11 -85 -2 -6 10 -18 10 -27 1z"/>
<path d="M1417 923 c-4 -3 -7 -35 -7 -70 0 -55 4 -68 25 -88 25 -26 54 -32 71
-15 5 5 24 6 45 1 44 -10 53 -5 57 32 3 31 0 33 -23 10 -16 -16 -17 -15 -13 3
2 11 13 20 26 22 28 4 28 16 0 42 -17 16 -18 19 -5 15 14 -6 17 -2 17 24 0 27
-3 31 -27 31 -16 0 -33 -4 -40 -8 -18 -11 -20 -121 -2 -133 11 -7 10 -9 -7 -9
-27 0 -44 37 -44 94 0 31 -5 46 -16 50 -21 8 -49 8 -57 -1z"/>
<path d="M1889 919 c-41 -15 -64 -73 -47 -119 18 -54 90 -75 148 -45 42 22 39
45 -5 45 -26 0 -35 -4 -35 -17 0 -16 -1 -16 -16 -1 -23 23 -8 40 35 38 20 -1
42 -2 49 -1 20 2 13 48 -10 65 -13 9 -16 14 -8 10 13 -6 13 -4 -1 10 -19 21
-75 29 -110 15z m61 -44 c0 -8 -7 -15 -15 -15 -26 0 -18 20 13 29 1 1 2 -6 2
-14z"/>
<path d="M2073 922 c-6 -4 -11 -43 -12 -88 -1 -77 0 -82 21 -86 45 -8 58 1 58
40 0 56 10 83 29 80 12 -3 16 -15 16 -53 0 -28 4 -56 9 -63 9 -16 56 -8 68 11
11 17 10 67 -2 67 -5 0 -7 12 -4 28 10 54 -25 72 -116 59 -14 -2 -32 0 -41 4
-8 4 -20 5 -26 1z"/>
<path d="M2336 909 c-15 -12 -25 -28 -22 -35 3 -8 1 -14 -4 -14 -16 0 -11 -53
6 -78 9 -13 27 -27 41 -33 13 -5 22 -13 18 -18 -3 -6 2 -14 12 -19 14 -9 15
-13 4 -26 -12 -14 -11 -16 8 -16 28 0 38 27 18 48 -15 14 -13 17 23 33 46 21
70 56 44 66 -10 4 -22 0 -29 -10 -7 -9 -15 -14 -19 -10 -4 4 -25 8 -47 9 -22
1 -45 6 -51 12 -8 8 -5 9 10 5 17 -4 24 1 32 21 5 14 11 26 12 26 2 0 19 -4
38 -10 19 -5 43 -7 52 -4 43 13 -32 74 -90 74 -16 0 -41 -10 -56 -21z"/>
<path d="M2568 919 c-31 -12 -44 -37 -23 -45 8 -4 31 -3 50 0 22 4 35 3 35 -4
0 -5 -7 -10 -15 -10 -8 0 -15 -6 -15 -13 0 -7 -9 -13 -20 -14 -11 -1 -18 2
-15 8 4 5 -5 4 -19 -3 -36 -16 -36 -61 0 -84 20 -13 32 -15 57 -7 21 6 40 6
54 0 42 -18 53 -4 53 71 0 55 -4 72 -19 86 -24 21 -86 29 -123 15z m62 -108
c0 -12 -20 -25 -27 -18 -7 7 6 27 18 27 5 0 9 -4 9 -9z"/>
<path d="M2804 923 c-32 -6 -52 -33 -59 -80 -5 -34 -2 -46 18 -69 21 -24 32
-28 80 -28 39 -1 60 4 75 17 27 25 35 71 17 113 -19 46 -60 61 -131 47z m13
-29 c-3 -3 -12 -4 -19 -1 -8 3 -5 6 6 6 11 1 17 -2 13 -5z m13 -26 c28 4 30 2
30 -31 0 -41 -19 -60 -27 -28 -3 12 -10 21 -15 21 -5 0 -7 4 -4 9 3 5 -1 11
-9 15 -8 3 -15 11 -14 18 0 8 2 9 5 2 2 -6 18 -8 34 -6z"/>
<path d="M3608 924 c-4 -3 -12 -6 -20 -8 -29 -4 -51 -24 -45 -40 4 -9 2 -16
-3 -16 -18 0 -11 -66 9 -87 39 -41 148 -37 171 7 13 24 13 86 0 110 -14 27
-95 51 -112 34z m-1 -30 c-3 -3 -12 -4 -19 -1 -8 3 -5 6 6 6 11 1 17 -2 13 -5z
m43 -60 c0 -27 -4 -34 -20 -34 -15 0 -20 7 -20 24 0 17 -7 27 -22 32 -22 7
-22 7 -4 14 11 3 30 5 43 2 19 -3 23 -11 23 -38z"/>
<path d="M4040 918 c-14 -8 -26 -22 -28 -32 -4 -17 1 -18 42 -13 28 4 46 3 46
-3 0 -6 -5 -10 -11 -10 -6 0 -18 -7 -26 -16 -10 -10 -18 -12 -22 -5 -5 7 -14
6 -28 -4 -52 -36 2 -109 65 -87 17 5 38 5 55 -1 44 -15 57 4 53 75 -2 43 -9
65 -23 80 -25 25 -90 33 -123 16z m60 -107 c0 -12 -20 -25 -27 -18 -7 7 6 27
18 27 5 0 9 -4 9 -9z"/>
<path d="M4248 914 c-20 -10 -28 -23 -28 -41 0 -28 33 -63 59 -63 9 0 23 -5
31 -10 10 -7 1 -8 -31 -4 -31 4 -49 2 -54 -6 -21 -34 88 -66 119 -35 9 9 20
14 25 11 15 -10 34 23 27 48 -4 17 -17 28 -43 36 -57 18 -60 28 -9 23 45 -5
54 0 38 23 -23 34 -89 43 -134 18z"/>
<path d="M3054 873 c4 -8 2 -13 -6 -13 -9 0 -9 -3 2 -10 13 -9 13 -11 0 -20
-18 -11 -18 -11 40 -12 80 -1 80 0 80 32 0 28 -3 30 -35 30 -19 0 -35 -5 -35
-11 0 -5 6 -7 13 -3 7 5 6 0 -3 -10 -14 -18 -15 -18 -21 5 -4 13 -7 18 -8 10
-1 -11 -4 -11 -18 0 -11 10 -14 10 -9 2z m106 -13 c0 -5 -7 -10 -16 -10 -8 0
-12 5 -9 10 3 6 10 10 16 10 5 0 9 -4 9 -10z"/>
<path d="M841 788 c-12 -19 -11 -23 5 -35 15 -11 20 -11 23 -1 2 6 -1 14 -6
15 -6 2 -9 13 -6 23 7 26 1 25 -16 -2z"/>
<path d="M890 770 c0 -5 5 -10 10 -10 6 0 10 5 10 10 0 6 -4 10 -10 10 -5 0
-10 -4 -10 -10z"/>
</g>
</svg>
